<svg width="55" height="55" fill="none" xmlns="http://www.w3.org/2000/svg"><path d="M27.465 45.833c4.837 0 9.477-1.931 12.898-5.37A18.381 18.381 0 0 0 45.705 27.5c0-4.863-1.922-9.526-5.342-12.964a18.194 18.194 0 0 0-12.898-5.37 18.194 18.194 0 0 0-12.898 5.37A18.38 18.38 0 0 0 9.224 27.5a18.38 18.38 0 0 0 5.343 12.963 18.193 18.193 0 0 0 12.898 5.37Zm0 4.583c-12.593 0-22.8-10.26-22.8-22.916 0-12.657 10.207-22.917 22.8-22.917 12.592 0 22.8 10.26 22.8 22.917 0 12.657-10.208 22.916-22.8 22.916Z" fill="#fff"/><path d="M34.13 19.538H20.8c-2.615 0-4.736 2.108-4.736 4.707v6.623c0 2.601 2.12 4.707 4.736 4.707h13.33c2.615 0 4.735-2.108 4.735-4.707v-6.623c0-2.6-2.12-4.707-4.736-4.707Zm-3.202 8.342-6.236 2.956a.25.25 0 0 1-.358-.227v-6.096a.253.253 0 0 1 .242-.25.25.25 0 0 1 .123.028l6.234 3.14a.251.251 0 0 1 .096.357.251.251 0 0 1-.1.092Z" fill="#fff"/></svg>